# xmcd
# 
# Track frame offsets:
#     150
#     15280
#     31120
#     49782
#     67217
#     84857
#     110007
#     128812
#     140847
#     158357
#     173862
#     196842
#     211535
#     229850
#     251067
#     269157
#     288810
#     310645
# 
# Disc length: 4493
# 
# Revision: 19
# Processed by: cddbd v1.5.2PL0 Copyright (c) Steve Scherf et al.
# Submitted via: fre:ac v1.1beta1pre2
# 
DISCID=f1118b12
DTITLE=井上陽水 - Golden Best
DYEAR=2003
DGENRE=J-Pop
TTITLE0=少年時代
TTITLE1=ありがとう
TTITLE2=Make-Up Shadow
TTITLE3=アジアの純真
TTITLE4=最後のニュース
TTITLE5=傘がない
TTITLE6=氷の世界
TTITLE7=夢の中へ
TTITLE8=リバーサイド ホテル
TTITLE9=心もよう
TTITLE10=5月の別れ
TTITLE11=いっそ セレナーデ
TTITLE12=クレイジーラブ
TTITLE13=飾りじゃないのよ 涙は
TTITLE14=ジェラシー
TTITLE15=青空、ひとりきり
TTITLE16=新しいラプソディー
TTITLE17=長い坂の絵のフレーム
EXTD=YEAR: 2003
EXTT0=
EXTT1=
EXTT2=
EXTT3=
EXTT4=
EXTT5=
EXTT6=
EXTT7=
EXTT8=
EXTT9=
EXTT10=
EXTT11=
EXTT12=
EXTT13=
EXTT14=
EXTT15=
EXTT16=
EXTT17=
PLAYORDER=
